<svg xmlns="http://www.w3.org/2000/svg" viewBox="0 0 252.27 122.22"><defs><style>.cls-1{stroke:#1d1d1b;stroke-miterlimit:10;stroke-width:0.75px;}</style></defs><g id="Ebene_2" data-name="Ebene 2"><g id="Ebene_1-2" data-name="Ebene 1"><path class="cls-1" d="M81.62,121.84l2.55-14.6H70.7l-2.6,14.6H60l6.12-34.69h8.13l-2.35,13.18H85.4l2.3-13.18h8.18l-6.12,34.69Z"/><path class="cls-1" d="M116.17,107.09l-2.65,14.75h-8.13L108,107.09,99.12,87.15h9.11l5,13.13,9.95-13.13H133Z"/><path class="cls-1" d="M149.24,87.15a17.23,17.23,0,0,1,3.63.39,10.22,10.22,0,0,1,3.26,1.3,7.43,7.43,0,0,1,2.35,2.35,6.62,6.62,0,0,1,.91,3.55,8.27,8.27,0,0,1-2.06,5.79,10.5,10.5,0,0,1-5.34,3.08v.1a7.6,7.6,0,0,1,4.43,2.38,7.11,7.11,0,0,1,1.79,5,9.54,9.54,0,0,1-1.1,4.65,9.76,9.76,0,0,1-3.07,3.36,14.32,14.32,0,0,1-4.7,2,25,25,0,0,1-6,.68H129.54l6.13-34.69ZM139.88,107l-1.42,8.29h4.76a13.39,13.39,0,0,0,2.59-.25,7.12,7.12,0,0,0,2.18-.78,4,4,0,0,0,1.52-1.47,4.26,4.26,0,0,0,.57-2.26,3.05,3.05,0,0,0-1.28-2.6,6.07,6.07,0,0,0-3.62-.93Zm2.36-13.27L141,101.11h5a9.2,9.2,0,0,0,1.84-.19,5.49,5.49,0,0,0,1.74-.68,4.1,4.1,0,0,0,1.3-1.32,3.81,3.81,0,0,0,.51-2A2.54,2.54,0,0,0,150,94.45a6.85,6.85,0,0,0-3.34-.73Z"/><path class="cls-1" d="M192,121.84h-9.21l-5.83-14h-3.34l-2.35,14H163.3l6.13-34.69h11.86q5.73,0,8.94,2.42a8,8,0,0,1,3.21,6.79,10.2,10.2,0,0,1-2.3,6.89,11.76,11.76,0,0,1-6.23,3.65ZM178.3,102a10,10,0,0,0,5.09-1.08,3.66,3.66,0,0,0,1.82-3.41,3,3,0,0,0-1.52-2.92,9,9,0,0,0-4.07-.78h-3.48L174.67,102Z"/><path class="cls-1" d="M196.67,121.84l6.13-34.69H211l-6.12,34.69Z"/><path class="cls-1" d="M219.46,87.15H232.3a21.72,21.72,0,0,1,5.85.81,15.35,15.35,0,0,1,5.24,2.57,13.58,13.58,0,0,1,3.8,4.53,14.12,14.12,0,0,1,1.47,6.69,20.86,20.86,0,0,1-1.59,8.28,18.4,18.4,0,0,1-4.43,6.35,20,20,0,0,1-6.72,4,24.22,24.22,0,0,1-8.43,1.42H213.33Zm3.13,27.64h5.25a13.41,13.41,0,0,0,5.36-1,11.14,11.14,0,0,0,3.87-2.69,11.41,11.41,0,0,0,2.33-3.87,13.27,13.27,0,0,0,.79-4.49,9.82,9.82,0,0,0-.57-3.35,7.09,7.09,0,0,0-1.74-2.77,8.29,8.29,0,0,0-3-1.87,12,12,0,0,0-4.24-.68h-4.46Z"/><polygon points="112.31 48.86 131.03 48.86 121.67 26.3 112.31 48.86"/><path d="M89.6,27.05Q86.87,25.22,82,25.22H74.63V40.58H82q5.1,0,7.74-2a6.76,6.76,0,0,0,2.64-5.76A6.47,6.47,0,0,0,89.6,27.05Z"/><path d="M175.91,32.84a7.35,7.35,0,0,0-.78-3.54A6.38,6.38,0,0,0,173,27a9.84,9.84,0,0,0-3.36-1.32,21.15,21.15,0,0,0-4.38-.42h-7.68V40.4h7.5q5.22,0,8-1.89A6.37,6.37,0,0,0,175.91,32.84Z"/><path d="M246.94,7.11h-185a5.35,5.35,0,0,0-5.34,5.34V73.52a5.34,5.34,0,0,0,5.34,5.33h185a5.33,5.33,0,0,0,5.33-5.33V12.45A5.34,5.34,0,0,0,246.94,7.11ZM95.6,37.85a9.71,9.71,0,0,1-2.94,3.54,13.36,13.36,0,0,1-4.56,2.13,22.68,22.68,0,0,1-5.91.72H74.63V64H70.31V21.5h12a23.26,23.26,0,0,1,5.88.69,13,13,0,0,1,4.53,2.1,9.44,9.44,0,0,1,2.91,3.54,11.49,11.49,0,0,1,1,5A11.21,11.21,0,0,1,95.6,37.85ZM137.33,64l-4.68-11.16h-22L106.07,64h-4.74L119.69,21.5h4.2L142.13,64Zm39.18,0L164.75,44.12h-7.2V64h-4.32V21.5h12.48a26.39,26.39,0,0,1,5.79.6,13.05,13.05,0,0,1,4.62,1.95,9.2,9.2,0,0,1,3,3.51,11.72,11.72,0,0,1,1.08,5.28,10.4,10.4,0,0,1-3.12,7.59,10.93,10.93,0,0,1-3.42,2.25,14.89,14.89,0,0,1-4.32,1.08L181.79,64Zm21.84,0H194V21.5h4.32Zm39.47-5.67a11.54,11.54,0,0,1-3.15,3.81,13.09,13.09,0,0,1-4.43,2.22,18,18,0,0,1-5,.72,19.25,19.25,0,0,1-3.84-.39,17.37,17.37,0,0,1-3.66-1.17,15,15,0,0,1-3.24-2,14.39,14.39,0,0,1-2.64-2.76L215.57,56a11.39,11.39,0,0,0,3.87,3.81,11,11,0,0,0,5.85,1.53,11.32,11.32,0,0,0,3.3-.51,9.28,9.28,0,0,0,3-1.56,8.64,8.64,0,0,0,2.22-2.58,8,8,0,0,0,0-7.26A7.74,7.74,0,0,0,231.53,47a14.14,14.14,0,0,0-3.3-1.65q-1.86-.66-3.9-1.32t-4.14-1.5a14,14,0,0,1-3.66-2.19A10.23,10.23,0,0,1,213.92,37a10.79,10.79,0,0,1-1-4.86,10.73,10.73,0,0,1,1.23-5.28,11.12,11.12,0,0,1,3.21-3.66,13.44,13.44,0,0,1,4.38-2.1,17.82,17.82,0,0,1,4.74-.66A16.35,16.35,0,0,1,233.87,22a12.67,12.67,0,0,1,4.62,3.63l-3.42,2.76a10.38,10.38,0,0,0-3.54-3.09,10.82,10.82,0,0,0-5.22-1.17,11.16,11.16,0,0,0-3.18.48A9.22,9.22,0,0,0,220.19,26a7.56,7.56,0,0,0-2.13,2.49,7.34,7.34,0,0,0-.81,3.54,6.53,6.53,0,0,0,.78,3.36,7.48,7.48,0,0,0,2.06,2.25A12,12,0,0,0,223,39.2c1.09.4,2.24.8,3.44,1.2,1.47.48,3,1,4.45,1.56a15.84,15.84,0,0,1,4,2.19,10.61,10.61,0,0,1,2.94,3.42A10.92,10.92,0,0,1,239,52.82,11.64,11.64,0,0,1,237.82,58.31Z"/><path d="M27.81,5H16.14a2.5,2.5,0,0,1,0-5H27.81a2.5,2.5,0,0,1,0,5Z"/><path d="M34.69,40.56H10.22a2.5,2.5,0,0,1,0-5H34.69a2.5,2.5,0,0,1,0,5Z"/><path d="M34.69,33.47H10.22a2.5,2.5,0,0,1,0-5H34.69a2.5,2.5,0,0,1,0,5Z"/><path d="M39.78,7.11H5.33A5.34,5.34,0,0,0,0,12.45V73.52a5.33,5.33,0,0,0,5.33,5.33h6.84l1.55-5H5.33A.33.33,0,0,1,5,73.52V12.45a.34.34,0,0,1,.33-.34H39.78a.34.34,0,0,1,.34.34V73.52a.34.34,0,0,1-.34.33H22.61l-1.54,5H39.78a5.34,5.34,0,0,0,5.34-5.33V12.45A5.35,5.35,0,0,0,39.78,7.11Z"/><path d="M22.26,54.93a5.67,5.67,0,0,1,5.67,5.67v0h6a3.21,3.21,0,0,0,3.21-3.21V45.92a3.22,3.22,0,0,0-3.21-3.21H11.2A3.22,3.22,0,0,0,8,45.92V57.43a3.21,3.21,0,0,0,3.21,3.21h5.39v0A5.67,5.67,0,0,1,22.26,54.93Z"/><path d="M23,58.11a2.49,2.49,0,0,0-3.12,1.65l-.27.88-.92,3-.34,1.12-2.82,9.13-1.55,5L9.9,92.14a10.15,10.15,0,0,1,2.48.44,10.36,10.36,0,0,1,2.3,1l4.56-14.76,1.54-5,2.37-7.65.34-1.13,1.19-3.83a3.13,3.13,0,0,0,.1-.6A2.51,2.51,0,0,0,23,58.11Z"/><path d="M15.35,97.37a8.67,8.67,0,0,0-1.43-1.28A7.88,7.88,0,0,0,11.65,95a8.09,8.09,0,0,0-2.41-.37h-.1a8.54,8.54,0,0,0-1.91.25,8.19,8.19,0,1,0,8.12,2.51Zm-7.93,2.81a3.15,3.15,0,0,1,1.82-.58,3.24,3.24,0,0,1,.93.16,3.15,3.15,0,1,1-2.75.42Z"/></g></g></svg>