<?xml version="1.0" encoding="UTF-8"?>
<svg xmlns="http://www.w3.org/2000/svg" width="110" height="88" viewBox="0 0 110 88" fill="none">
  <g clip-path="url(#clip0)">
    <path fill-rule="evenodd" clip-rule="evenodd" d="M68.8325 70.9476L64.836 66.6465C60.4195 70.6831 54.9222 73.349 49.0146 74.319C43.1069 75.289 37.0443 74.5212 31.5662 72.1093C26.088 69.6973 21.431 65.7455 18.1633 60.7358C14.8956 55.7261 13.1584 49.875 13.1635 43.8962C13.1686 37.9174 14.9158 32.0692 18.1921 27.0651C21.4684 22.0609 26.132 18.1171 31.6143 15.7145C37.0966 13.3119 43.1605 12.5544 49.0665 13.5345C54.9725 14.5146 60.4652 17.1898 64.8748 21.2339L68.8325 16.9329L71.1605 11.0432L71.4321 9.532L69.8801 8.40831L68.2893 7.28462L66.97 7.98208L62.0811 12.0119C61.1499 11.4694 60.2187 11.0044 59.2875 10.5782L59.6755 4.26228L59.4427 2.75111L57.6191 2.16989L55.7566 1.54992L54.709 2.63486L51.2945 7.98208C50.2857 7.78834 49.2381 7.5946 48.1905 7.47836L46.5997 1.35618L45.94 0H42.0988L41.4004 1.35618L39.8095 7.47836C38.7619 7.5946 37.7143 7.78834 36.7055 7.98208L33.3298 2.63486L32.2434 1.54992L30.4198 2.13114L28.5961 2.75111L28.3633 4.26228L28.7513 10.5395C27.7813 11.0044 26.8501 11.4694 25.9577 11.9731L21.0688 7.94334L19.7108 7.24587L18.1587 8.36957L16.5679 9.532L16.8395 11.0044L19.1676 16.8941C18.3915 17.5916 17.6543 18.3665 16.9559 19.1028L11.0582 16.7779L9.54498 16.5454L8.41975 18.0953L7.29453 19.6452L7.99295 21.0014L12.0282 25.8837C11.4961 26.7851 11.0168 27.7166 10.5926 28.6735L4.26808 28.286L2.75485 28.5185L2.17284 30.3397L1.55203 32.1608L2.63845 33.2458L7.99295 36.6556C7.79894 37.663 7.60494 38.6705 7.48854 39.7167L1.35802 41.3054L0 42.0028V45.8389L1.35802 46.5363L7.48854 48.125C7.60494 49.1712 7.79894 50.1786 7.99295 51.1861L2.63845 54.5959L1.55203 55.6809L2.13404 57.502L2.75485 59.3232L4.26808 59.5556L10.5538 59.1682C11.0194 60.1369 11.485 61.0668 11.9894 61.958L7.95415 66.8403L7.25573 68.1964L8.38095 69.7464L9.54498 71.2963L11.0194 71.0638L16.9171 68.7389C17.6673 69.5139 18.4045 70.2501 19.1288 70.9476L16.8007 76.8373L16.5679 78.3484L18.1199 79.4721L19.672 80.5958L21.03 79.8983L25.9189 75.8686C26.8113 76.3723 27.7813 76.876 28.7125 77.3022L28.3245 83.6181L28.5573 85.1293L30.381 85.7105L32.2046 86.2918L33.291 85.2068L36.7055 79.8983C37.7143 80.0921 38.7231 80.2471 39.7707 80.3633L41.3616 86.5242L42.06 87.8804H45.9012L46.5997 86.5242L48.1905 80.3633C49.2381 80.2471 50.2469 80.0921 51.2557 79.8983L54.6702 85.2456L55.7566 86.3305L57.5803 85.7105L59.4039 85.1293L59.6367 83.6181L59.2487 77.3022C60.2107 76.8866 61.1439 76.4077 62.0423 75.8686L66.9312 79.8983L68.2893 80.6346L69.8413 79.4721L71.3933 78.3484L71.1605 76.8373L68.8325 70.9476Z" fill="#163C95"></path>
    <path d="M41.9047 47.7763V61.0281H40.3527L32.3986 51.1473V61.0281H30.4973V47.7763H32.0493L40.0423 57.657V47.7763H41.9047Z" fill="#163C95"></path>
    <path d="M54.6701 56.6108H46.522C46.6122 57.447 47.0308 58.2134 47.686 58.7419C48.3931 59.2947 49.2717 59.5826 50.1692 59.5556C50.7127 59.5798 51.2549 59.4848 51.7576 59.2772C52.2604 59.0697 52.7115 58.7547 53.0793 58.3545L54.0881 59.5169C53.6308 60.056 53.0431 60.4695 52.3809 60.7181C51.5642 61.0353 50.6902 61.1785 49.8148 61.1384C48.9395 61.0984 48.0822 60.876 47.298 60.4856C46.4979 60.0796 45.8363 59.4458 45.3967 58.6644C44.9259 57.8669 44.6843 56.9553 44.6983 56.0296C44.6857 55.109 44.913 54.201 45.3579 53.3947C45.7779 52.6153 46.4101 51.9705 47.1816 51.5348C47.9664 51.1087 48.8493 50.8949 49.7424 50.9148C50.6481 50.8935 51.5438 51.1071 52.3421 51.5348C53.0824 51.9849 53.686 52.6279 54.0881 53.3947C54.5195 54.2187 54.7332 55.1389 54.7089 56.0683C54.7128 56.25 54.6998 56.4316 54.6701 56.6108ZM47.5696 53.2397C46.9753 53.7692 46.6015 54.502 46.522 55.2934H52.9629C52.8973 54.5065 52.5371 53.7732 51.9541 53.2397C51.3429 52.7185 50.5655 52.4321 49.7618 52.4321C48.9581 52.4321 48.1808 52.7185 47.5696 53.2397Z" fill="#163C95"></path>
    <path d="M65.1851 51.5348C65.9552 51.9548 66.5881 52.587 67.0087 53.356C67.462 54.173 67.6896 55.0958 67.6683 56.0296C67.6806 56.9624 67.4536 57.8828 67.0087 58.7032C66.5857 59.4606 65.9524 60.0796 65.1851 60.4856C64.3898 60.9251 63.4943 61.152 62.5854 61.1443C61.8778 61.1456 61.1776 61.0005 60.529 60.7181C59.9217 60.4143 59.3911 59.9771 58.977 59.4394V61.0281H57.231V46.9626H59.0546V52.5035C59.4615 51.9781 59.9956 51.5647 60.6066 51.3023C61.2296 51.0291 61.9053 50.8968 62.5854 50.9148C63.4911 50.8935 64.3868 51.1071 65.1851 51.5348ZM64.1763 59.0907C64.6867 58.7994 65.1038 58.3695 65.3791 57.8507C65.6794 57.2918 65.8266 56.6636 65.8059 56.0296C65.8298 55.3829 65.6826 54.7414 65.3791 54.1697C65.1038 53.651 64.6867 53.221 64.1763 52.9297C63.6443 52.6309 63.0403 52.4834 62.4302 52.5035C61.8206 52.4873 61.2177 52.6345 60.6842 52.9297C60.1738 53.221 59.7567 53.651 59.4814 54.1697C59.1949 54.7476 59.0487 55.3848 59.0546 56.0296C59.0533 56.6615 59.1994 57.285 59.4814 57.8507C59.7567 58.3695 60.1738 58.7994 60.6842 59.0907C61.2146 59.3977 61.8172 59.5582 62.4302 59.5556C63.0437 59.562 63.6474 59.4012 64.1763 59.0907Z" fill="#163C95"></path>
    <path d="M70.2293 48.7062C70.119 48.6013 70.0311 48.475 69.9711 48.3351C69.9111 48.1953 69.8801 48.0447 69.8801 47.8925C69.8801 47.5739 70.0068 47.2684 70.2324 47.0431C70.458 46.8179 70.7639 46.6913 71.0829 46.6913C71.2479 46.6829 71.4129 46.7096 71.5667 46.7697C71.7206 46.8298 71.8599 46.922 71.9753 47.04C72.0918 47.1402 72.1837 47.2655 72.2442 47.4065C72.3048 47.5476 72.3322 47.7005 72.3245 47.8538C72.3299 48.0124 72.3016 48.1704 72.2414 48.3174C72.1812 48.4643 72.0905 48.5968 71.9753 48.7062C71.8599 48.8243 71.7206 48.9164 71.5667 48.9765C71.4129 49.0367 71.2479 49.0634 71.0829 49.0549C70.9241 49.0603 70.7658 49.032 70.6187 48.9719C70.4716 48.9118 70.3389 48.8213 70.2293 48.7062ZM70.1905 50.9923H72.0141V61.0281H70.1905V50.9923Z" fill="#163C95"></path>
    <path d="M79.3862 56.3396L77.2909 58.277V61.0281H75.4673V46.9626H77.2909V55.9908L82.8006 50.9923H84.9735L80.7442 55.1384L85.4003 61.0281H83.1498L79.3862 56.3396Z" fill="#163C95"></path>
    <path d="M88.3491 60.4856C87.5759 60.0565 86.9326 59.4274 86.4867 58.6644C86.0551 57.8461 85.8296 56.9351 85.8296 56.0102C85.8296 55.0853 86.0551 54.1743 86.4867 53.356C86.9439 52.6019 87.5846 51.9755 88.3491 51.5348C89.1893 51.1071 90.1224 50.8941 91.0652 50.9149C91.9956 50.894 92.9162 51.1072 93.7425 51.5348C94.507 51.9755 95.1476 52.6019 95.6049 53.356C96.0365 54.1743 96.262 55.0853 96.262 56.0102C96.262 56.9351 96.0365 57.8461 95.6049 58.6644C95.159 59.4274 94.5157 60.0565 93.7425 60.4856C92.9192 60.9251 91.9987 61.1515 91.0652 61.1443C90.1193 61.1515 89.1864 60.9252 88.3491 60.4856ZM92.7724 59.0907C93.3028 58.8129 93.7359 58.3804 94.0141 57.8507C94.296 57.285 94.4421 56.6615 94.4409 56.0296C94.4468 55.3848 94.3006 54.7476 94.0141 54.1697C93.7359 53.6401 93.3028 53.2076 92.7724 52.9297C92.2548 52.6302 91.6631 52.4825 91.0652 52.5035C90.4547 52.4794 89.8497 52.627 89.3192 52.9297C88.8002 53.2099 88.3802 53.6428 88.1163 54.1697C87.7994 54.7377 87.6387 55.3794 87.6507 56.0296C87.6437 56.6669 87.8043 57.2948 88.1163 57.8507C88.3802 58.3776 88.8002 58.8106 89.3192 59.0907C89.8457 59.4069 90.4509 59.5681 91.0652 59.5556C91.6666 59.5629 92.258 59.4018 92.7724 59.0907Z" fill="#163C95"></path>
    <path d="M107.206 51.9998C107.944 52.736 108.332 53.821 108.332 55.2546V61.0281H106.508V55.4484C106.508 54.4797 106.275 53.7435 105.81 53.2785C105.545 53.0193 105.228 52.8195 104.88 52.6925C104.532 52.5656 104.161 52.5143 103.792 52.5423C103.366 52.5193 102.94 52.583 102.54 52.7295C102.14 52.8761 101.774 53.1024 101.464 53.3947C100.882 53.9759 100.61 54.7897 100.61 55.8746V61.0281H98.7866V50.9924H100.533V52.5035C100.918 51.9731 101.441 51.5578 102.046 51.3023C102.722 51.0259 103.449 50.8939 104.18 50.9149C104.731 50.8856 105.283 50.9665 105.803 51.1528C106.322 51.3391 106.799 51.6271 107.206 51.9998Z" fill="#163C95"></path>
    <path d="M36.5892 29.8359C37.5103 29.3559 38.538 29.116 39.5768 29.1385C40.4347 29.1243 41.2854 29.2973 42.0695 29.6453C42.8535 29.9933 43.5521 30.508 44.1165 31.1534L46.755 28.7123C45.8757 27.7353 44.7886 26.9674 43.5733 26.4649C42.2381 25.9442 40.8162 25.6812 39.3828 25.6899C37.6441 25.6612 35.9251 26.0605 34.3775 26.8524C32.9474 27.5978 31.7521 28.7244 30.9243 30.1072C30.1111 31.5293 29.6833 33.1386 29.6833 34.7763C29.6833 36.414 30.1111 38.0233 30.9243 39.4454C31.7521 40.8282 32.9474 41.9548 34.3775 42.7003C35.8974 43.4919 37.5913 43.8915 39.3052 43.8627C40.5946 43.8595 41.8763 43.6636 43.1077 43.2815C44.2966 42.9242 45.4131 42.3601 46.4057 41.6153V36.3456V33.2458H38.6456V36.3456H42.6809V39.6392C41.7152 40.1573 40.6342 40.4238 39.538 40.4141C38.4944 40.4371 37.4635 40.183 36.5504 39.6779C35.708 39.2179 35.0097 38.5339 34.5327 37.7018C34.0504 36.8019 33.7981 35.797 33.7981 34.7763C33.7981 33.7556 34.0504 32.7507 34.5327 31.8508C35.0226 31.0054 35.7334 30.3089 36.5892 29.8359Z" fill="#163C95"></path>
    <path d="M65.6119 35.7256C66.2847 34.733 66.6244 33.5525 66.5819 32.3546C66.6109 31.1638 66.2869 29.991 65.6507 28.9835C65.0041 27.9924 64.0701 27.2218 62.9735 26.7749C61.7037 26.2172 60.3245 25.9523 58.9382 25.9999H51.2944V43.5527H55.3685V38.6705H59.1322L62.5078 43.5527H66.8923L62.9346 37.9343C64.0313 37.4873 64.9653 36.7168 65.6119 35.7256ZM61.499 34.6407C60.6789 35.1997 59.6967 35.4721 58.7054 35.4157H55.3685V29.2935H58.7054C59.8953 29.2935 60.8265 29.5647 61.499 30.1072C61.8211 30.3835 62.0759 30.7296 62.244 31.119C62.412 31.5084 62.489 31.931 62.469 32.3546C62.4865 32.7835 62.4085 33.211 62.2408 33.6063C62.0731 34.0016 61.8198 34.3549 61.499 34.6407Z" fill="#163C95"></path>
    <path d="M84.3916 26.8524C82.8548 26.088 81.1613 25.6902 79.4445 25.6902C77.7276 25.6902 76.0342 26.088 74.4974 26.8524C73.084 27.6211 71.8942 28.7425 71.0441 30.1072C70.2309 31.5293 69.8032 33.1387 69.8032 34.7763C69.8032 36.414 70.2309 38.0233 71.0441 39.4455C71.8942 40.8102 73.084 41.9316 74.4974 42.7003C76.0342 43.4646 77.7276 43.8624 79.4445 43.8624C81.1613 43.8624 82.8548 43.4646 84.3916 42.7003C85.7939 41.9305 86.9709 40.8086 87.806 39.4455C88.6423 38.0311 89.0834 36.4188 89.0834 34.7763C89.0834 33.1339 88.6423 31.5215 87.806 30.1072C86.9709 28.744 85.7939 27.6221 84.3916 26.8524ZM84.2364 37.7018C83.7855 38.5404 83.0973 39.2277 82.2575 39.6779C81.413 40.1781 80.4456 40.4331 79.4639 40.4142C78.4701 40.4322 77.4904 40.1775 76.6314 39.6779C75.7917 39.2277 75.1035 38.5404 74.6526 37.7018C74.1924 36.7951 73.9526 35.7928 73.9526 34.7763C73.9526 33.7598 74.1924 32.7576 74.6526 31.8508C75.1035 31.0123 75.7917 30.3249 76.6314 29.8747C77.4974 29.3924 78.4724 29.1389 79.4639 29.1385C80.4432 29.1386 81.4057 29.3923 82.2575 29.8747C83.0973 30.3249 83.7855 31.0123 84.2364 31.8508C84.6966 32.7576 84.9364 33.7598 84.9364 34.7763C84.9364 35.7928 84.6966 36.7951 84.2364 37.7018Z" fill="#163C95"></path>
    <path d="M108.564 36.0356C107.963 35.2613 107.136 34.6927 106.197 34.4082C106.909 34.0744 107.504 33.5343 107.905 32.8583C108.326 32.171 108.541 31.3777 108.526 30.5722C108.549 29.912 108.405 29.2567 108.106 28.6673C107.808 28.0778 107.365 27.5734 106.818 27.2011C105.654 26.3874 104.025 25.9999 101.891 25.9999H93.2769V43.5527H102.395C104.684 43.5527 106.43 43.1653 107.633 42.3128C108.209 41.9276 108.675 41.4008 108.988 40.7832C109.301 40.1656 109.449 39.4781 109.418 38.7867C109.462 37.7986 109.16 36.826 108.564 36.0356ZM97.3121 29.061H101.386C102.182 29.008 102.976 29.1827 103.675 29.5647C103.916 29.7452 104.112 29.9792 104.247 30.2482C104.381 30.5172 104.451 30.8139 104.451 31.1146C104.451 31.4154 104.381 31.712 104.247 31.9811C104.112 32.2501 103.916 32.4841 103.675 32.6646C102.981 33.062 102.186 33.2504 101.386 33.207H97.3121V29.061ZM104.49 39.9879C103.947 40.3367 103.132 40.4916 102.085 40.4916H97.3121V36.1519H102.085C104.257 36.1519 105.305 36.8881 105.305 38.3605C105.328 38.6798 105.265 38.9995 105.121 39.2859C104.978 39.5722 104.76 39.8147 104.49 39.9879Z" fill="#163C95"></path>
  </g>
  <defs>
    <clipPath id="clip0">
      <path d="M0 0H110V87.8804H0V0Z" fill="white"></path>
    </clipPath>
  </defs>
</svg>
