<?xml version="1.0" encoding="utf-8"?>
<!-- Generator: Adobe Illustrator 21.0.2, SVG Export Plug-In . SVG Version: 6.00 Build 0)  -->
<svg version="1.1" id="Ebene_1" xmlns="http://www.w3.org/2000/svg" xmlns:xlink="http://www.w3.org/1999/xlink" x="0px" y="0px"
	 viewBox="0 0 362 62" style="enable-background:new 0 0 362 62;" xml:space="preserve">
<style type="text/css">
	.st0{fill:#FFFFFF;}
</style>
<g>
	<rect x="223.7" y="22.2" class="st0" width="9.5" height="39.6"/>
	<path class="st0" d="M278.8,22.2l-25.7,39.6h10l5.1-7.9h31.6l5.1,7.9h9.9l-25.7-39.6H278.8z M273,46.4L284,29.5l10.9,16.8H273z"/>
	<rect x="72.6" class="st0" width="7.9" height="22.2"/>
	<rect x="83.6" class="st0" width="7.9" height="22.2"/>
	<path class="st0" d="M176.2,61.8V45.6h32.5v16.2h9.5V22.2h-9.5v15.5h-32.5V22.2h-9.5v31.7l-32.5,0c-8.8,0-13.4-5.3-13.4-11.9
		c0-6.6,4.5-11.9,13.4-11.9l28.6,0v-7.9l-30.1,0c-13.3,0-21.4,8.9-21.4,19.8c0,10.9,8,19.8,21.4,19.8H176.2z"/>
	<path class="st0" d="M362,41.6h-9.5v12.3l-19,0c-8.9,0-13.4-5.3-13.4-11.9c0-6.6,4.5-11.9,13.4-11.9l28.5,0v-7.9l-30.1,0
		c-13.3,0-21.3,8.9-21.3,19.8c0,10.9,8,19.8,21.3,19.8l30.1,0L362,41.6z"/>
	<path class="st0" d="M98.3,22.2l0,21.4c0,9.4-7.2,11.1-16.2,11.1s-16.2-1.6-16.2-11.1l0-21.4h-9.5V46c0,13.3,11.5,16.5,25.7,16.5
		c14.2,0,25.7-3.2,25.7-16.6l0-23.8H98.3z"/>
	<path class="st0" d="M52.6,50.7c0,6.1-4.2,11-12.7,11.1L0,61.8V22.2l38.8,0C47,22.2,51,27,51,32.9c0,3.3-1.5,6.3-3.9,8.2
		C50.4,43.1,52.6,46.6,52.6,50.7z M9.5,30.1V38H36c4.6,0,5.5-1.8,5.5-4c0-2.2-0.9-3.9-5.5-3.9L9.5,30.1z M9.5,45.1v8.7l27.7,0
		c4.8,0,6-2,6-4.4c0-2.4-1.2-4.4-6-4.4L9.5,45.1z"/>
</g>
</svg>
