<svg xmlns="http://www.w3.org/2000/svg" viewBox="0 0 277.55 164.26"><defs><style>.cls-1{stroke:#1d1d1b;stroke-miterlimit:10;stroke-width:0.75px;}</style></defs><g id="Ebene_2" data-name="Ebene 2"><g id="Ebene_1-2" data-name="Ebene 1"><path d="M63.42,11.43H8.06A8.07,8.07,0,0,0,0,19.49v98.15a8.06,8.06,0,0,0,8.06,8H19l2.09-7h-13a1.05,1.05,0,0,1-1.06-1V19.49a1.06,1.06,0,0,1,1.06-1.06H63.42a1.06,1.06,0,0,1,1,1.06v98.15a1,1,0,0,1-1,1H35.29l-2.09,7H63.42a8.06,8.06,0,0,0,8-8V19.49A8.07,8.07,0,0,0,63.42,11.43Z"/><path d="M54,68.13H17.48a5.17,5.17,0,0,0-5.16,5.16V96.12a5.16,5.16,0,0,0,5.16,5.16h7c0-.2,0-.4,0-.6a6,6,0,0,1,.09-.61,9.1,9.1,0,0,1,17.94,0c0,.2.07.4.1.61s0,.4,0,.6H54a5.16,5.16,0,0,0,5.16-5.16V73.29A5.17,5.17,0,0,0,54,68.13Z"/><path d="M25.43,7H44.19a3.5,3.5,0,0,0,0-7H25.43a3.5,3.5,0,0,0,0,7Z"/><path d="M15.91,64.15H55.23a3.5,3.5,0,0,0,0-7H15.91a3.5,3.5,0,1,0,0,7Z"/><path d="M15.91,52.75H55.23a3.5,3.5,0,0,0,0-7H15.91a3.5,3.5,0,1,0,0,7Z"/><path d="M37,100.07a3.49,3.49,0,0,0-6.8-.46l-.14.46-.18.61-.18.6,0,.13-2.1,7-3.06,10.23-2.09,7-2.65,8.88a17.19,17.19,0,0,1,6.71,2l3.25-10.89,2.09-7,2.39-8,2.17-7.26.53-1.8a1.94,1.94,0,0,0,.07-.33,4.08,4.08,0,0,0,0-1.21Z"/><path d="M25.14,141.06a12.49,12.49,0,0,0-6.7-2h-.13a12.64,12.64,0,1,0,9.59,4.44A12.73,12.73,0,0,0,25.14,141.06Zm-1.22,10.59a5.62,5.62,0,1,1-1-3.19,5.69,5.69,0,0,1,.9,2.13A6.14,6.14,0,0,1,23.92,151.65Z"/><path class="cls-1" d="M106.9,125.93l2.55-14.6H96l-2.59,14.6H85.24l6.13-34.69H99.5l-2.35,13.18h13.52L113,91.24h8.18L115,125.93Z"/><path class="cls-1" d="M141.45,111.18l-2.65,14.75h-8.13l2.59-14.75-8.87-19.94h9.12l5,13.13,9.94-13.13h9.9Z"/><path class="cls-1" d="M174.52,91.24a17.23,17.23,0,0,1,3.63.39,10.08,10.08,0,0,1,3.26,1.3,7.43,7.43,0,0,1,2.35,2.35,6.59,6.59,0,0,1,.9,3.55,8.24,8.24,0,0,1-2,5.78,10.59,10.59,0,0,1-5.35,3.09v.1a7.52,7.52,0,0,1,4.44,2.37,7.13,7.13,0,0,1,1.79,5,9.46,9.46,0,0,1-1.11,4.65,9.63,9.63,0,0,1-3.06,3.36,14.31,14.31,0,0,1-4.7,2,24.48,24.48,0,0,1-6,.69H154.82L161,91.24Zm-9.36,19.84-1.42,8.28h4.75a13.51,13.51,0,0,0,2.6-.24,7.51,7.51,0,0,0,2.18-.79,4.12,4.12,0,0,0,1.52-1.47,4.32,4.32,0,0,0,.56-2.25,3,3,0,0,0-1.27-2.6,6.08,6.08,0,0,0-3.63-.93Zm2.35-13.28-1.27,7.4h5a9.2,9.2,0,0,0,1.84-.19,5.15,5.15,0,0,0,1.73-.69,3.88,3.88,0,0,0,1.3-1.31,3.73,3.73,0,0,0,.52-2,2.56,2.56,0,0,0-1.33-2.44A6.9,6.9,0,0,0,172,97.8Z"/><path class="cls-1" d="M217.25,125.93H208l-5.84-14h-3.33l-2.35,14h-7.94l6.13-34.69h11.86c3.82,0,6.8.8,8.94,2.42a8,8,0,0,1,3.21,6.79,10.13,10.13,0,0,1-2.31,6.88,11.67,11.67,0,0,1-6.22,3.65Zm-13.67-19.85a10,10,0,0,0,5.09-1.07,3.66,3.66,0,0,0,1.82-3.41A3,3,0,0,0,209,98.68a9,9,0,0,0-4.07-.78h-3.48L200,106.08Z"/><path class="cls-1" d="M222,125.93l6.13-34.69h8.18l-6.13,34.69Z"/><path class="cls-1" d="M244.74,91.24h12.83a22.19,22.19,0,0,1,5.86.8,15.37,15.37,0,0,1,5.24,2.58,13.5,13.5,0,0,1,3.8,4.53,14.07,14.07,0,0,1,1.47,6.69,20.86,20.86,0,0,1-1.59,8.28,18.16,18.16,0,0,1-4.44,6.34,19.85,19.85,0,0,1-6.71,4.05,24.45,24.45,0,0,1-8.43,1.42H238.61Zm3.13,27.63h5.24a13.43,13.43,0,0,0,5.37-1,11.08,11.08,0,0,0,6.2-6.57,13.2,13.2,0,0,0,.78-4.48,10.12,10.12,0,0,0-.56-3.36,7.49,7.49,0,0,0-1.74-2.77,8.41,8.41,0,0,0-3-1.86,11.81,11.81,0,0,0-4.24-.69H251.5Z"/><polygon points="137.59 52.95 156.31 52.95 146.95 30.39 137.59 52.95"/><path d="M114.88,31.14q-2.73-1.83-7.65-1.83H99.91V44.67h7.32q5.1,0,7.74-2a6.76,6.76,0,0,0,2.64-5.76A6.47,6.47,0,0,0,114.88,31.14Z"/><path d="M201.19,36.93a7.35,7.35,0,0,0-.78-3.54,6.38,6.38,0,0,0-2.16-2.34,9.84,9.84,0,0,0-3.36-1.32,21.15,21.15,0,0,0-4.38-.42h-7.68V44.49h7.5q5.22,0,8-1.89A6.37,6.37,0,0,0,201.19,36.93Z"/><path d="M272.21,11.2H87.2a5.34,5.34,0,0,0-5.34,5.33V77.6a5.34,5.34,0,0,0,5.34,5.34h185a5.35,5.35,0,0,0,5.34-5.34V16.53A5.34,5.34,0,0,0,272.21,11.2ZM120.88,41.94a9.71,9.71,0,0,1-2.94,3.54,13.36,13.36,0,0,1-4.56,2.13,22.68,22.68,0,0,1-5.91.72H99.91V68.07H95.59V25.59h12a23.26,23.26,0,0,1,5.88.69,13,13,0,0,1,4.53,2.1,9.44,9.44,0,0,1,2.91,3.54,11.49,11.49,0,0,1,1,5A11.21,11.21,0,0,1,120.88,41.94Zm41.73,26.13-4.68-11.16H136l-4.62,11.16h-4.74L145,25.59h4.2l18.24,42.48Zm39.18,0L190,48.21h-7.2V68.07h-4.32V25.59H191a26.39,26.39,0,0,1,5.79.6,13.05,13.05,0,0,1,4.62,1.95,9.2,9.2,0,0,1,3,3.51,11.72,11.72,0,0,1,1.08,5.28,10.4,10.4,0,0,1-3.12,7.59A10.93,10.93,0,0,1,199,46.77a14.89,14.89,0,0,1-4.32,1.08l12.42,20.22Zm21.84,0h-4.32V25.59h4.32ZM263.1,62.4A11.54,11.54,0,0,1,260,66.21a13.09,13.09,0,0,1-4.43,2.22,18,18,0,0,1-5,.72,19.25,19.25,0,0,1-3.84-.39A17.37,17.37,0,0,1,243,67.59a15,15,0,0,1-3.24-2,14.39,14.39,0,0,1-2.64-2.76l3.72-2.76a11.39,11.39,0,0,0,3.87,3.81,11,11,0,0,0,5.85,1.53,11.32,11.32,0,0,0,3.3-.51,9.28,9.28,0,0,0,3-1.56,8.64,8.64,0,0,0,2.22-2.58,8,8,0,0,0,0-7.26,7.74,7.74,0,0,0-2.31-2.46,14.14,14.14,0,0,0-3.3-1.65q-1.86-.66-3.9-1.32t-4.14-1.5a14,14,0,0,1-3.66-2.19,10.23,10.23,0,0,1-2.61-3.33,10.79,10.79,0,0,1-1-4.86,10.73,10.73,0,0,1,1.23-5.28,11.12,11.12,0,0,1,3.21-3.66,13.44,13.44,0,0,1,4.38-2.1,17.82,17.82,0,0,1,4.74-.66A16.35,16.35,0,0,1,259.15,26a12.67,12.67,0,0,1,4.62,3.63l-3.42,2.76a10.38,10.38,0,0,0-3.54-3.09,10.82,10.82,0,0,0-5.22-1.17,11.16,11.16,0,0,0-3.18.48,9.22,9.22,0,0,0-2.94,1.47,7.56,7.56,0,0,0-2.13,2.49,7.34,7.34,0,0,0-.81,3.54,6.53,6.53,0,0,0,.78,3.36,7.36,7.36,0,0,0,2.06,2.25,12.13,12.13,0,0,0,2.93,1.53c1.1.4,2.25.8,3.44,1.2,1.48.48,3,1,4.46,1.56a16,16,0,0,1,4,2.19,10.46,10.46,0,0,1,2.93,3.42,10.8,10.8,0,0,1,1.14,5.25A11.64,11.64,0,0,1,263.1,62.4Z"/></g></g></svg>