<svg xmlns="http://www.w3.org/2000/svg" viewBox="0 0 252.27 122.08"><defs><style>.cls-1{stroke:#1d1d1b;stroke-miterlimit:10;stroke-width:0.75px;}</style></defs><g id="Ebene_2" data-name="Ebene 2"><g id="Ebene_1-2" data-name="Ebene 1"><path d="M39.78,7.11H5.33A5.34,5.34,0,0,0,0,12.45V73.52a5.33,5.33,0,0,0,5.33,5.33h8.06l1.54-5H5.33A.33.33,0,0,1,5,73.52V12.45a.34.34,0,0,1,.33-.34H39.78a.34.34,0,0,1,.34.34V73.52a.34.34,0,0,1-.34.33H24.35l-1.54,5h17a5.34,5.34,0,0,0,5.34-5.33V12.45A5.35,5.35,0,0,0,39.78,7.11Z"/><path d="M33.91,42.61H11.2A3.21,3.21,0,0,0,8,45.82V62a3.21,3.21,0,0,0,3.21,3.21h5.39v0c0-.12,0-.23,0-.34s0-.25,0-.38a5.67,5.67,0,0,1,11.24,0l0,.38c0,.11,0,.22,0,.34s0,0,0,0h6A3.21,3.21,0,0,0,37.12,62V45.82A3.21,3.21,0,0,0,33.91,42.61Z"/><path d="M16.14,5H27.82a2.5,2.5,0,0,0,0-5H16.14a2.5,2.5,0,0,0,0,5Z"/><path d="M10.22,40.56H34.69a2.5,2.5,0,0,0,0-5H10.22a2.5,2.5,0,0,0,0,5Z"/><path d="M10.22,33.47H34.69a2.5,2.5,0,0,0,0-5H10.22a2.5,2.5,0,0,0,0,5Z"/><path d="M24.74,64.85c0-.13-.06-.25-.1-.38a2.49,2.49,0,0,0-4.71,0l0,.09-.09.29-.12.37-.88,2.87-.39,1.26L17,73.85l-1.55,5-1.65,5.38a10.23,10.23,0,0,1,2.48.44,10.49,10.49,0,0,1,2.29,1l2.12-6.85,1.54-5,.95-3.08.38-1.21L24.68,66a2.81,2.81,0,0,0,.1-.81C24.77,65.1,24.76,65,24.74,64.85Z"/><path d="M19.47,89.68a8,8,0,0,0-1.63-1.5,7.88,7.88,0,0,0-2.27-1.12,8,8,0,0,0-2.41-.37h-.1a8.34,8.34,0,0,0-2.19.32,8.18,8.18,0,1,0,8.6,2.66Zm-8.13,2.59a3.18,3.18,0,0,1,1.82-.58,3.24,3.24,0,0,1,.93.16,3.15,3.15,0,1,1-2.75.42Z"/><path class="cls-1" d="M81.62,121.71l2.55-14.61H70.7l-2.6,14.61H60L66.09,87h8.13L71.87,100.2H85.4L87.7,87h8.18l-6.12,34.7Z"/><path class="cls-1" d="M116.17,107l-2.65,14.75h-8.13L108,107,99.12,87h9.11l5,13.14L123.13,87H133Z"/><path class="cls-1" d="M149.24,87a17.25,17.25,0,0,1,3.63.4,10,10,0,0,1,3.26,1.3,7.33,7.33,0,0,1,2.35,2.35,6.59,6.59,0,0,1,.91,3.55,8.25,8.25,0,0,1-2.06,5.78,10.58,10.58,0,0,1-5.34,3.09v.1a7.53,7.53,0,0,1,4.43,2.37,7.13,7.13,0,0,1,1.79,5,9.57,9.57,0,0,1-1.1,4.65A9.76,9.76,0,0,1,154,119a14.31,14.31,0,0,1-4.7,2,24.48,24.48,0,0,1-6,.69H129.54L135.67,87Zm-9.36,19.85-1.42,8.28h4.76a13.4,13.4,0,0,0,2.59-.24,7.4,7.4,0,0,0,2.18-.79,4,4,0,0,0,1.52-1.47,4.23,4.23,0,0,0,.57-2.25,3,3,0,0,0-1.28-2.6,6.07,6.07,0,0,0-3.62-.93Zm2.36-13.28L141,101h5a9.2,9.2,0,0,0,1.84-.19,5.51,5.51,0,0,0,1.74-.69,4.07,4.07,0,0,0,1.3-1.31,3.82,3.82,0,0,0,.51-2.05A2.56,2.56,0,0,0,150,94.31a6.85,6.85,0,0,0-3.34-.73Z"/><path class="cls-1" d="M192,121.71h-9.21l-5.83-14h-3.34l-2.35,14H163.3L169.43,87h11.86q5.73,0,8.94,2.43a8,8,0,0,1,3.21,6.79,10.18,10.18,0,0,1-2.3,6.88,11.7,11.7,0,0,1-6.23,3.65ZM178.3,101.86a10.07,10.07,0,0,0,5.09-1.07,3.66,3.66,0,0,0,1.82-3.41,3,3,0,0,0-1.52-2.92,9,9,0,0,0-4.07-.78h-3.48l-1.47,8.18Z"/><path class="cls-1" d="M196.67,121.71,202.8,87H211l-6.12,34.7Z"/><path class="cls-1" d="M219.46,87H232.3a21.72,21.72,0,0,1,5.85.81,15.37,15.37,0,0,1,5.24,2.58,13.38,13.38,0,0,1,3.8,4.53,14.07,14.07,0,0,1,1.47,6.69,20.9,20.9,0,0,1-1.59,8.28,18.26,18.26,0,0,1-4.43,6.34,20,20,0,0,1-6.72,4.05,24.45,24.45,0,0,1-8.43,1.42H213.33Zm3.13,27.64h5.25a13.42,13.42,0,0,0,5.36-1,11,11,0,0,0,3.87-2.7,11.41,11.41,0,0,0,2.33-3.87,13.21,13.21,0,0,0,.79-4.48,9.88,9.88,0,0,0-.57-3.36,7.16,7.16,0,0,0-1.74-2.77,8.41,8.41,0,0,0-3-1.86,11.81,11.81,0,0,0-4.24-.69h-4.46Z"/><polygon points="112.31 48.73 131.03 48.73 121.67 26.17 112.31 48.73"/><path d="M89.6,26.92Q86.87,25.09,82,25.09H74.63V40.45H82q5.1,0,7.74-2a6.76,6.76,0,0,0,2.64-5.76A6.47,6.47,0,0,0,89.6,26.92Z"/><path d="M175.91,32.71a7.35,7.35,0,0,0-.78-3.54A6.38,6.38,0,0,0,173,26.83a9.84,9.84,0,0,0-3.36-1.32,21.15,21.15,0,0,0-4.38-.42h-7.68V40.27h7.5q5.22,0,8-1.89A6.37,6.37,0,0,0,175.91,32.71Z"/><path d="M246.94,7h-185a5.34,5.34,0,0,0-5.34,5.33V73.38a5.35,5.35,0,0,0,5.34,5.34h185a5.34,5.34,0,0,0,5.33-5.34V12.31A5.33,5.33,0,0,0,246.94,7ZM95.6,37.72a9.71,9.71,0,0,1-2.94,3.54,13.36,13.36,0,0,1-4.56,2.13,22.68,22.68,0,0,1-5.91.72H74.63V63.85H70.31V21.37h12a23.26,23.26,0,0,1,5.88.69,13,13,0,0,1,4.53,2.1,9.44,9.44,0,0,1,2.91,3.54,11.49,11.49,0,0,1,1,5A11.21,11.21,0,0,1,95.6,37.72Zm41.73,26.13-4.68-11.16h-22l-4.62,11.16h-4.74l18.36-42.48h4.2l18.24,42.48Zm39.18,0L164.75,44h-7.2V63.85h-4.32V21.37h12.48a26.39,26.39,0,0,1,5.79.6,13.05,13.05,0,0,1,4.62,2,9.2,9.2,0,0,1,3,3.51,11.72,11.72,0,0,1,1.08,5.28,10.4,10.4,0,0,1-3.12,7.59,10.93,10.93,0,0,1-3.42,2.25,14.89,14.89,0,0,1-4.32,1.08l12.42,20.22Zm21.84,0H194V21.37h4.32Zm39.47-5.67A11.54,11.54,0,0,1,234.67,62a13.09,13.09,0,0,1-4.43,2.22,18,18,0,0,1-5,.72,19.25,19.25,0,0,1-3.84-.39,17.37,17.37,0,0,1-3.66-1.17,15,15,0,0,1-3.24-2,14.39,14.39,0,0,1-2.64-2.76l3.72-2.76a11.39,11.39,0,0,0,3.87,3.81,11,11,0,0,0,5.85,1.53,11.32,11.32,0,0,0,3.3-.51,9.28,9.28,0,0,0,3-1.56,8.64,8.64,0,0,0,2.22-2.58,8,8,0,0,0,0-7.26,7.74,7.74,0,0,0-2.31-2.46,14.14,14.14,0,0,0-3.3-1.65q-1.86-.66-3.9-1.32t-4.14-1.5a14,14,0,0,1-3.66-2.19,10.23,10.23,0,0,1-2.61-3.33,10.79,10.79,0,0,1-1-4.86,10.73,10.73,0,0,1,1.23-5.28,11.12,11.12,0,0,1,3.21-3.66,13.44,13.44,0,0,1,4.38-2.1,17.82,17.82,0,0,1,4.74-.66,16.35,16.35,0,0,1,7.38,1.53,12.67,12.67,0,0,1,4.62,3.63l-3.42,2.76a10.38,10.38,0,0,0-3.54-3.09A10.82,10.82,0,0,0,226.31,24a11.16,11.16,0,0,0-3.18.48,9.22,9.22,0,0,0-2.94,1.47,7.56,7.56,0,0,0-2.13,2.49,7.34,7.34,0,0,0-.81,3.54,6.53,6.53,0,0,0,.78,3.36,7.48,7.48,0,0,0,2.06,2.25A12,12,0,0,0,223,39.07c1.09.4,2.24.8,3.44,1.2,1.47.48,3,1,4.45,1.56A15.84,15.84,0,0,1,235,44a10.61,10.61,0,0,1,2.94,3.42A10.92,10.92,0,0,1,239,52.69,11.64,11.64,0,0,1,237.82,58.18Z"/></g></g></svg>